#N canvas 325 145 1239 665 12;
#X obj 90 260 tgl 25 0 \$0_play_send \$0_play_recv play 0 -10 0 10
#c6ffc7 #000000 #000000 0 1 1;
#N canvas 102 70 450 250 (subpatch) 0;
#X array \$0_waveform 246144 float 4 black black;
#X coords 0 1 246143 -1 350 175 1;
#X restore 52 69 graph;
#X obj 60 260 tgl 25 0 \$0_record_send \$0_record_recv rec 2 -10 0
10 #ffc7c6 #000000 #000000 0 1 1;
#N canvas 66 321 1405 737 recording 0;
#X obj 76 344 writesf~;
#X msg 75 232 start;
#X msg 431 103 stop;
#X obj 103 73 t b b;
#X obj 342 48 t b b;
#X obj 340 494 soundfiler;
#X floatatom 340 523 12 0 0 0 - - - 0 0 1, f 12;
#X obj 145 11 r \$0_record_send;
#X obj 103 44 sel 1 0;
#X obj 550 280 symbol \$0_waveform;
#X obj 340 552 s \$0_samplelength;
#X obj 7 9 r~ \$0_audio_in;
#X obj 339 336 pack s s;
#X msg 340 460 read -resize \$1 \$2;
#X obj 339 242 t b b;
#X msg 146 186 open \$1;
#X obj 780 60 r \$0_open_send;
#X msg 780 89 dir;
#X obj 780 118 pdcontrol;
#X msg 780 150 symbol \$1/audio;
#X obj 780 180 openpanel;
#X obj 780 210 t s b;
#X obj 780 300 pack s s;
#X obj 840 250 symbol \$0_waveform;
#X msg 1020 99 dir;
#X obj 1020 128 pdcontrol;
#X msg 1020 160 symbol \$1/audio;
#X obj 1020 220 t s b;
#X obj 1020 310 pack s s;
#X obj 1080 260 symbol \$0_waveform;
#X obj 1020 70 r \$0_save_send;
#X obj 1020 190 savepanel;
#X msg 1020 360 write \$1 \$2;
#X obj 1020 389 soundfiler;
#X obj 280 280 symbol audio/\$0_recording.wav;
#X obj 150 130 symbol audio/\$0_recording.wav;
#X obj 70 190 delay 200;
#X obj 342 198 delay 200;
#X connect 1 0 0 0;
#X connect 2 0 0 0;
#X connect 3 0 36 0;
#X connect 3 1 35 0;
#X connect 4 0 37 0;
#X connect 4 1 2 0;
#X connect 5 0 6 0;
#X connect 6 0 10 0;
#X connect 7 0 8 0;
#X connect 8 0 3 0;
#X connect 8 1 4 0;
#X connect 9 0 12 1;
#X connect 11 0 0 0;
#X connect 12 0 13 0;
#X connect 13 0 5 0;
#X connect 14 0 34 0;
#X connect 14 1 9 0;
#X connect 15 0 0 0;
#X connect 16 0 17 0;
#X connect 17 0 18 0;
#X connect 18 0 19 0;
#X connect 19 0 20 0;
#X connect 20 0 21 0;
#X connect 21 0 22 0;
#X connect 21 1 23 0;
#X connect 22 0 13 0;
#X connect 23 0 22 1;
#X connect 24 0 25 0;
#X connect 25 0 26 0;
#X connect 26 0 31 0;
#X connect 27 0 28 0;
#X connect 27 1 29 0;
#X connect 28 0 32 0;
#X connect 29 0 28 1;
#X connect 30 0 24 0;
#X connect 31 0 27 0;
#X connect 32 0 33 0;
#X connect 34 0 12 0;
#X connect 35 0 15 0;
#X connect 36 0 1 0;
#X connect 37 0 14 0;
#X restore 460 160 pd recording;
#N canvas 394 654 567 714 loading 0;
#X obj 36 22 loadbang;
#X obj 90 190 samplerate~;
#X floatatom 90 220 6 0 0 0 - - - 0 0 1, f 6;
#X obj 40 50 bng 16 250 50 0 empty empty empty 0 -10 0 12 #fcfcfc #000000
#000000 1;
#X obj 90 246 s \$0_samplerate;
#X msg 110 130 \; pd dsp 1 \;;
#X msg 60 260 0;
#X obj 37 78 t b b b b;
#X obj 60 290 s \$0_playbackspeed_recv;
#X msg 40 400 100;
#X obj 40 430 s \$0_normalgrainsize;
#X connect 0 0 3 0;
#X connect 1 0 2 0;
#X connect 2 0 4 0;
#X connect 3 0 7 0;
#X connect 6 0 8 0;
#X connect 7 0 9 0;
#X connect 7 1 6 0;
#X connect 7 2 1 0;
#X connect 7 3 5 0;
#X connect 9 0 10 0;
#X restore 460 120 pd loading;
#N canvas 228 517 1344 865 calculations 1;
#X obj 27 23 r \$0_samplelength;
#X floatatom 27 56 17 0 0 0 - - - 0 0 1, f 17;
#X obj 27 125 /;
#X obj 45 100 r \$0_samplerate;
#X floatatom 27 171 5 0 0 0 - - - 0 0 1, f 5;
#X obj 54 198 s \$0_duration;
#X obj 27 258 swap 1;
#X floatatom 30 315 5 0 0 0 - - - 0 0 1, f 5;
#X obj 30 286 /;
#X obj 818 49 t f b;
#X floatatom 816 76 5 0 0 0 - - - 0 0 1, f 5;
#X msg 860 70 0;
#X obj 301 58 moses 0;
#X obj 301 99 swap 1;
#X obj 304 140 +;
#X obj 304 178 + 0.01;
#X floatatom 390 246 5 0 0 0 - - - 0 0 1, f 5;
#X obj 390 270 s \$0_playbackspeed;
#X obj 398 120 * 3;
#X obj 398 145 + 1;
#X obj 392 193 *;
#X floatatom 523 131 5 0 0 0 - - - 0 0 1, f 5;
#X obj 520 164 t b f;
#X msg 810 210 0;
#X obj 30 496 /;
#X obj 68 446 t b f;
#X obj 30 390 r \$0_samplerate;
#X obj 300 30 r \$0_playbackspeed_send;
#X obj 860 100 s \$0_playbackspeed_recv;
#X obj 810 180 r \$0_playbackspeedzero_send;
#X obj 810 240 s \$0_playbackspeed_recv;
#X obj 70 420 r \$0_normalgrainsize;
#X obj 30 530 s \$0_normalgrainspeed;
#X obj 288 332 moses 0;
#X obj 288 373 swap 1;
#X obj 291 414 +;
#X obj 291 452 + 0.01;
#X floatatom 377 504 5 0 0 0 - - - 0 0 1, f 5;
#X obj 385 394 * 3;
#X obj 385 419 + 1;
#X obj 379 464 *;
#X floatatom 510 405 5 0 0 0 - - - 0 0 1, f 5;
#X obj 507 438 t b f;
#X obj 287 304 r \$0_grainspeed_send;
#X obj 510 380 r \$0_normalgrainspeed;
#X obj 377 531 s \$0_grainspeed;
#X obj 30 350 s \$0_normalplaybackspeed;
#X obj 820 10 r \$0_normalplaybackspeed;
#X obj 520 80 r \$0_normalplaybackspeed;
#X obj 818 49 t f b;
#X floatatom 816 76 5 0 0 0 - - - 0 0 1, f 5;
#X msg 860 70 0;
#X msg 810 210 0;
#X obj 860 100 s \$0_playbackspeed_recv;
#X obj 810 180 r \$0_playbackspeedzero_send;
#X obj 810 240 s \$0_playbackspeed_recv;
#X obj 820 10 r \$0_normalplaybackspeed;
#X obj 818 339 t f b;
#X floatatom 816 366 5 0 0 0 - - - 0 0 1, f 5;
#X msg 860 360 0;
#X msg 810 500 0;
#X obj 820 300 r \$0_normalgrainspeed;
#X obj 860 390 s \$0_grainspeed_recv;
#X obj 810 470 r \$0_grainspeedzero_send;
#X obj 810 530 s \$0_grainspeed_recv;
#X obj 810 570 r \$0_normalgrainsize;
#X obj 810 610 t f b;
#X floatatom 808 637 5 0 0 0 - - - 0 0 1, f 5;
#X msg 852 631 0;
#X obj 810 610 t f b;
#X floatatom 808 637 5 0 0 0 - - - 0 0 1, f 5;
#X msg 852 631 0;
#X msg 810 500 0;
#X obj 810 470 r \$0_grainspeedzero_send;
#X obj 810 530 s \$0_grainspeed_recv;
#X msg 830 770 0;
#X obj 830 740 r \$0_grainsizezero_send;
#X obj 830 800 s \$0_grainsize_recv;
#X obj 350 570 r \$0_grainsize_send;
#X obj 350 610 moses 0;
#X obj 350 651 swap 1;
#X obj 353 692 +;
#X obj 350 730 + 0.01;
#X floatatom 440 780 5 0 0 0 - - - 0 0 1, f 5;
#X obj 530 620 r \$0_normalgrainsize;
#X floatatom 530 650 5 0 0 0 - - - 0 0 1, f 5;
#X obj 530 678 t b f;
#X obj 420 850 s \$0_grainsize;
#X obj 440 740 *;
#X obj 440 690 + 1;
#X obj 440 640 * 242;
#X obj 850 680 s \$0_grainsize_recv;
#X connect 0 0 1 0;
#X connect 1 0 2 0;
#X connect 2 0 4 0;
#X connect 3 0 2 1;
#X connect 4 0 5 0;
#X connect 4 0 6 0;
#X connect 6 0 8 0;
#X connect 6 1 8 1;
#X connect 7 0 46 0;
#X connect 8 0 7 0;
#X connect 9 0 10 0;
#X connect 9 1 11 0;
#X connect 11 0 28 0;
#X connect 12 0 13 0;
#X connect 12 1 18 0;
#X connect 13 0 14 0;
#X connect 13 1 14 1;
#X connect 14 0 15 0;
#X connect 15 0 20 0;
#X connect 16 0 17 0;
#X connect 18 0 19 0;
#X connect 19 0 20 0;
#X connect 20 0 16 0;
#X connect 21 0 22 0;
#X connect 22 0 20 0;
#X connect 22 1 20 1;
#X connect 23 0 30 0;
#X connect 24 0 32 0;
#X connect 25 0 24 0;
#X connect 25 1 24 1;
#X connect 26 0 24 0;
#X connect 27 0 12 0;
#X connect 29 0 23 0;
#X connect 31 0 25 0;
#X connect 33 0 34 0;
#X connect 33 1 38 0;
#X connect 34 0 35 0;
#X connect 34 1 35 1;
#X connect 35 0 36 0;
#X connect 36 0 40 0;
#X connect 37 0 45 0;
#X connect 38 0 39 0;
#X connect 39 0 40 0;
#X connect 40 0 37 0;
#X connect 41 0 42 0;
#X connect 42 0 40 0;
#X connect 42 1 40 1;
#X connect 43 0 33 0;
#X connect 44 0 41 0;
#X connect 47 0 9 0;
#X connect 48 0 21 0;
#X connect 49 0 50 0;
#X connect 49 1 51 0;
#X connect 51 0 53 0;
#X connect 52 0 55 0;
#X connect 54 0 52 0;
#X connect 56 0 49 0;
#X connect 57 0 58 0;
#X connect 57 1 59 0;
#X connect 59 0 62 0;
#X connect 60 0 64 0;
#X connect 61 0 57 0;
#X connect 63 0 60 0;
#X connect 65 0 69 0;
#X connect 65 0 71 0;
#X connect 65 0 70 0;
#X connect 65 0 68 0;
#X connect 65 0 67 0;
#X connect 65 0 66 0;
#X connect 66 0 67 0;
#X connect 66 1 68 0;
#X connect 69 0 70 0;
#X connect 69 1 71 0;
#X connect 71 0 91 0;
#X connect 72 0 74 0;
#X connect 73 0 72 0;
#X connect 75 0 77 0;
#X connect 76 0 75 0;
#X connect 78 0 79 0;
#X connect 79 0 80 0;
#X connect 79 1 90 0;
#X connect 80 0 81 0;
#X connect 80 1 81 1;
#X connect 81 0 82 0;
#X connect 82 0 88 0;
#X connect 83 0 87 0;
#X connect 84 0 85 0;
#X connect 85 0 86 0;
#X connect 86 0 88 0;
#X connect 86 1 88 1;
#X connect 88 0 83 0;
#X connect 89 0 88 0;
#X connect 90 0 89 0;
#X restore 460 200 pd calculations;
#N canvas 0 301 1472 708 playback 0;
#X obj 890 550 phasor~;
#X obj 890 630 *~;
#X obj 910 600 r \$0_samplelength;
#X obj 320 880 *~;
#X obj 70 700 tabread4~ \$0_waveform;
#X obj 870 120 sel 1 0;
#X obj 870 70 r \$0_play_send;
#X floatatom 885 495 5 0 0 0 - - - 0 0 1, f 5;
#X obj 920 430 r \$0_playbackspeed;
#X obj 883 463 f;
#X obj 320 930 s~ \$0_audio_out;
#X obj 70 460 phasor~;
#X floatatom 80 410 5 0 0 0 - - - 0 0 1, f 5;
#X obj 80 300 f;
#X floatatom 180 290 5 0 0 0 - - - 0 0 1, f 5;
#X obj 870 160 t b b b b b;
#X obj 70 530 *~;
#X obj 180 620 samphold~;
#X obj 70 610 +~;
#X obj 190 240 r \$0_grainspeed;
#X obj 120 500 r \$0_grainsize;
#X obj 1130 130 t b b;
#X obj 880 390 r \$0_startplaying;
#X msg 1160 261 0;
#X obj 360 850 r \$0_sound_onoff, f 17;
#X msg 980 210 1;
#X obj 980 239 s \$0_sound_onoff;
#X obj 960 480 r \$0_phasezero;
#X msg 920 260 0;
#X obj 920 289 s \$0_phasezero;
#X obj 150 430 r \$0_phasezero;
#X obj 890 320 s \$0_startplaying;
#X obj 750 390 r \$0_stopplaying;
#X obj 1130 220 s \$0_stopplaying;
#X obj 20 200 r \$0_stopplaying;
#X msg 1130 180 0;
#X obj 1160 290 s \$0_sound_onoff;
#X obj 260 700 tabread4~ \$0_hanning;
#X obj 80 760 *~;
#X obj 460 730 tabread4~ \$0_waveform;
#X obj 440 520 *~;
#X obj 530 610 samphold~;
#X obj 460 670 +~;
#X obj 530 470 r \$0_grainsize;
#X obj 740 680 tabread4~ \$0_hanning;
#X obj 460 780 *~;
#X obj 470 450 wrap~;
#X obj 300 790 +~;
#X obj 470 410 +~ 0.5;
#X obj 170 180 r \$0_startplaying;
#X connect 0 0 1 0;
#X connect 1 0 17 0;
#X connect 1 0 41 0;
#X connect 2 0 1 1;
#X connect 3 0 10 0;
#X connect 4 0 38 0;
#X connect 5 0 15 0;
#X connect 5 1 21 0;
#X connect 6 0 5 0;
#X connect 7 0 0 0;
#X connect 8 0 9 0;
#X connect 9 0 7 0;
#X connect 11 0 17 1;
#X connect 11 0 16 0;
#X connect 11 0 48 0;
#X connect 12 0 11 0;
#X connect 13 0 12 0;
#X connect 14 0 13 0;
#X connect 15 2 31 0;
#X connect 15 3 28 0;
#X connect 15 4 25 0;
#X connect 16 0 18 0;
#X connect 16 0 37 0;
#X connect 17 0 18 1;
#X connect 18 0 4 0;
#X connect 19 0 14 0;
#X connect 20 0 16 1;
#X connect 21 0 35 0;
#X connect 21 1 23 0;
#X connect 22 0 9 0;
#X connect 23 0 36 0;
#X connect 24 0 3 1;
#X connect 25 0 26 0;
#X connect 27 0 0 1;
#X connect 28 0 29 0;
#X connect 30 0 11 1;
#X connect 32 0 7 0;
#X connect 34 0 12 0;
#X connect 35 0 33 0;
#X connect 37 0 38 1;
#X connect 38 0 47 0;
#X connect 39 0 45 0;
#X connect 40 0 42 0;
#X connect 40 0 44 0;
#X connect 41 0 42 1;
#X connect 42 0 39 0;
#X connect 43 0 40 1;
#X connect 44 0 45 1;
#X connect 45 0 47 1;
#X connect 46 0 40 0;
#X connect 46 0 41 1;
#X connect 47 0 3 0;
#X connect 48 0 46 0;
#X connect 49 0 13 0;
#X restore 460 230 pd playback;
#X obj 200 260 hsl 200 25 -1 1 0 0 \$0_playbackspeed_send \$0_playbackspeed_recv
playback_speed -2 -10 0 12 #feffc6 #000000 #000000 9950 1 0 1;
#X obj 140 260 bng 25 250 50 0 \$0_playbackspeedzero_send \$0_playbackspeedzero_recv
reset -2 -10 0 10 #f8ffc2 #000000 #000000 1;
#X obj 471 411 outlet~;
#X obj 470 380 r~ \$0_audio_out;
#X obj 460 83 s~ \$0_audio_in;
#X obj 460 30 inlet~;
#X obj 558 38 adc~;
#X obj 327 496 dac~;
#N canvas 551 170 859 714 window 0;
#N canvas 768 444 450 300 (subpatch) 0;
#X array \$0_hanning 100 float 3 #46d5cf #46d5cf;
#A 0 0 0.000987232 0.00394276 0.00885695 0.0157086 0.0244723 0.035112
0.047587 0.0618469 0.0778365 0.0954918 0.114744 0.135516 0.157727 0.181288
0.206108 0.232087 0.259123 0.287111 0.315938 0.345492 0.375655 0.406309
0.437333 0.468605 0.5 0.531395 0.562667 0.593691 0.624345 0.654508
0.684062 0.712889 0.740877 0.767913 0.793892 0.818712 0.842273 0.864484
0.885256 0.904508 0.922163 0.938153 0.952413 0.964888 0.975528 0.984291
0.991143 0.996057 0.999013 1 0.999013 0.996057 0.991143 0.984291 0.975528
0.964888 0.952413 0.938153 0.922164 0.904508 0.885256 0.864484 0.842273
0.818712 0.793892 0.767913 0.740877 0.712889 0.684062 0.654508 0.624345
0.593691 0.562667 0.531395 0.5 0.468605 0.437333 0.40631 0.375655 0.345492
0.315938 0.287111 0.259123 0.232087 0.206108 0.181288 0.157727 0.135516
0.114744 0.0954919 0.0778365 0.061847 0.047587 0.035112 0.0244723 0.0157086
0.00885695 0.00394276 0.000987232;
#X coords 0 1 100 -1 200 140 1;
#X scroll 1;
#X restore 260 80 graph;
#X obj 350 470 osc~;
#X msg 390 420 0.5;
#X obj 470 250 r \$0_grainsize;
#X obj 520 410 symbol \$0_hanning;
#X obj 520 450 pack s f;
#X obj 340 260 r \$0_grainspeed;
#X obj 350 420 f;
#X obj 520 350 f, f 4;
#X obj 340 300 t b f b b;
#X obj 510 620 tabwrite~ \$0_hanning;
#X obj 520 380 t b f;
#X obj 350 510 *~ 0.5;
#X obj 350 550 +~ 0.5;
#X msg 520 490 \; \$1 resize \$2 \;, f 14;
#X obj 470 290 t b b b f;
#X connect 1 0 12 0;
#X connect 2 0 1 1;
#X connect 3 0 15 0;
#X connect 4 0 5 0;
#X connect 5 0 14 0;
#X connect 6 0 9 0;
#X connect 7 0 1 0;
#X connect 8 0 11 0;
#X connect 9 0 10 0;
#X connect 9 1 7 0;
#X connect 9 2 2 0;
#X connect 9 3 8 0;
#X connect 11 0 4 0;
#X connect 11 1 5 1;
#X connect 12 0 13 0;
#X connect 13 0 10 0;
#X connect 15 0 10 0;
#X connect 15 1 7 0;
#X connect 15 2 2 0;
#X connect 15 3 8 0;
#X restore 470 280 pd window;
#X obj 200 320 hsl 200 26 -1 1 0 0 \$0_grainspeed_send \$0_grainspeed_recv
grain_speed -2 -10 0 12 #7681ad #000000 #000000 9950 1 0 1;
#X obj 140 320 bng 25 250 50 0 \$0_grainspeedzero_send \$0_grainspeedzero_recv
reset -2 -10 0 10 #818db1 #000000 #000000 1;
#X obj 200 370 hsl 200 26 -1 1 0 0 \$0_grainsize_send \$0_grainsize_recv
grain_size -2 -10 0 12 #d0a480 #000000 #000000 9950 1 0 1;
#X obj 140 370 bng 25 250 50 0 \$0_grainsizezero_send \$0_grainsizezero_recv
reset -2 -10 0 10 #c3a283 #000000 #000000 1;
#X obj 100 350 bng 25 250 50 0 \$0_save_send \$0_save_recv save -2
-10 0 10 #d08bda #000000 #000000 1;
#X obj 60 350 bng 25 250 50 0 \$0_open_send \$0_open_recv open -2 -10
0 10 #2fd0a8 #000000 #000000 1;
#X connect 10 0 9 0;
#X connect 10 0 14 0;
#X connect 12 0 11 0;
#X connect 13 0 11 0;
#X coords 0 -1 1 1 375 367 2 50 50;
